Coordinates
version=1
nRows=37
nColumns=11
inDegrees=yes

Units are S.I. units (second, meters, Newtons, ...)
If the header above contains a line with 'inDegrees', this indicates whether rotational values are in degrees (yes) or radians (no).

endheader
time	pelvis_tilt	pelvis_tx	pelvis_ty	hip_flexion_l	hip_flexion_r	knee_angle_l	knee_angle_r	ankle_angle_l	ankle_angle_r	lumbar_extension
      6.23000000	     39.19087908	     -0.07674760	      1.09055421	     31.23483379	     32.97348742	    -63.47381132	    -60.66436870	    -38.97521730	    -47.25733769	    -30.30167841
      6.24000000	     39.19171551	     -0.07674860	      1.09060246	     31.22537011	     32.96128244	    -63.46480525	    -60.63812590	    -38.96881660	    -47.26096707	    -30.29819200
      6.25000000	     39.19313343	     -0.07674203	      1.09059173	     31.22887200	     32.95567029	    -63.47434496	    -60.61256837	    -38.96783449	    -47.26434449	    -30.29904879
      6.26000000	     39.19373487	     -0.07670346	      1.09057947	     31.22743920	     32.85179130	    -63.47558914	    -60.28024178	    -38.95213953	    -47.25766293	    -30.28212827
      6.27000000	     39.24422428	     -0.07672954	      1.09060602	     31.17796528	     32.78618225	    -63.48363587	    -60.23368828	    -38.93118182	    -47.45114738	    -30.34489522
      6.28000000	     39.24440504	     -0.07673301	      1.09060437	     31.17636578	     32.79452322	    -63.48076594	    -60.25928793	    -38.94287620	    -47.27039815	    -30.34916927
      6.29000000	     39.24710136	     -0.07672425	      1.09059730	     31.17752192	     32.79063097	    -63.48869039	    -60.24449339	    -38.94248419	    -47.26991108	    -30.34546623
      6.30000000	     39.24722868	     -0.07671740	      1.09060732	     31.17347236	     32.78198127	    -63.48273325	    -60.22332153	    -38.94082756	    -47.28462288	    -30.34159448
      6.31000000	     39.27042116	     -0.07672528	      1.09065467	     31.14449316	     32.75360811	    -63.47710359	    -60.20840443	    -38.93527422	    -47.38421076	    -30.36060868
      6.32000000	     39.27058658	     -0.07673041	      1.09065065	     31.14886623	     32.75318525	    -63.48186321	    -60.19515639	    -38.93550177	    -47.37577541	    -30.36442877
      6.33000000	     39.27096605	     -0.07671650	      1.09064962	     31.14843159	     32.75081707	    -63.48346248	    -60.18340367	    -38.93479097	    -47.36654901	    -30.36304214
      6.34000000	     39.27254435	     -0.07670622	      1.09063948	     31.14752717	     32.75267641	    -63.48299969	    -60.18251191	    -38.93486094	    -47.36600421	    -30.36281029
      6.35000000	     39.27457014	     -0.07671024	      1.09060958	     31.14713670	     32.75485006	    -63.48264075	    -60.18159848	    -38.93482219	    -47.36544421	    -30.36270817
      6.36000000	     39.27271911	     -0.07670099	      1.09060484	     31.14223157	     32.75757548	    -63.46809446	    -60.17951482	    -38.92496018	    -47.35580983	    -30.36084316
      6.37000000	     39.27523501	     -0.07669478	      1.09059870	     31.14584106	     32.75307358	    -63.47800283	    -60.17188366	    -38.92539371	    -47.35094545	    -30.35816922
      6.38000000	     39.27620150	     -0.07668660	      1.09059564	     31.14622350	     32.75318526	    -63.47718128	    -60.17232346	    -38.92533322	    -47.35027441	    -30.35787255
      6.39000000	     39.27710801	     -0.07668741	      1.09059092	     31.14049148	     32.75477104	    -63.46969209	    -60.17624402	    -38.92392659	    -47.34100083	    -30.35357684
      6.40000000	     39.28141912	     -0.07668657	      1.09059877	     31.13379268	     32.74568206	    -63.46432787	    -60.17537151	    -38.90266894	    -47.24062153	    -30.35167998
      6.41000000	     39.28198833	     -0.07669097	      1.09059673	     31.13464192	     32.74542177	    -63.46416927	    -60.17529856	    -38.90262317	    -47.24051114	    -30.35172299
      6.42000000	     39.28134560	     -0.07670542	      1.09059750	     31.13328078	     32.74967196	    -63.45223538	    -60.18259002	    -38.89693758	    -47.23865811	    -30.35286558
      6.43000000	     39.27988982	     -0.07670540	      1.09059817	     31.13296980	     32.74853387	    -63.45268683	    -60.18341672	    -38.89634171	    -47.23846235	    -30.35266895
      6.44000000	     39.28325818	     -0.07670737	      1.09059906	     31.13579975	     32.74600153	    -63.46176896	    -60.19249985	    -38.89620436	    -47.23504721	    -30.34803912
      6.45000000	     39.28163544	     -0.07670288	      1.09062901	     31.13078015	     32.74479477	    -63.45154821	    -60.20009385	    -38.89381261	    -47.23205764	    -30.34497246
      6.46000000	     39.28044412	     -0.07671819	      1.09064719	     31.13286395	     32.74152982	    -63.45104041	    -60.20280953	    -38.89371571	    -47.23183611	    -30.34496404
      6.47000000	     39.29045782	     -0.07676048	      1.09066060	     31.12076347	     32.83212587	    -63.44214530	    -60.53125493	    -38.89783816	    -47.24653334	    -30.36213711
      6.48000000	     39.28804150	     -0.07677332	      1.09067247	     31.12079815	     32.83645444	    -63.43581404	    -60.54278720	    -38.89853385	    -47.24572266	    -30.35989316
      6.49000000	     39.28126591	     -0.07676608	      1.09065021	     31.13390746	     32.84593718	    -63.44678006	    -60.55851585	    -38.89903376	    -47.24205286	    -30.34968970
      6.50000000	     39.23873024	     -0.07676005	      1.09059670	     31.18368460	     32.89926484	    -63.44851472	    -60.59036224	    -38.93125644	    -47.18736114	    -30.30275271
      6.51000000	     39.23631064	     -0.07676758	      1.09060483	     31.18015720	     32.90090262	    -63.44281815	    -60.60286341	    -38.93099769	    -47.18795103	    -30.30159848
      6.52000000	     39.23926989	     -0.07676007	      1.09059676	     31.18200101	     32.89962694	    -63.45005701	    -60.62048064	    -38.93155137	    -47.18925265	    -30.29831387
      6.53000000	     39.23634407	     -0.07676032	      1.09060228	     31.17824204	     32.90130389	    -63.44676662	    -60.63358944	    -38.92990592	    -47.18998149	    -30.29759091
      6.54000000	     39.23703788	     -0.07675467	      1.09060533	     31.17719911	     32.90244151	    -63.44805038	    -60.65149566	    -38.92990010	    -47.19047011	    -30.29489668
      6.55000000	     39.23427777	     -0.07674464	      1.09063218	     31.17193825	     32.89968191	    -63.44309293	    -60.66117847	    -38.92841552	    -47.19096750	    -30.29094050
      6.56000000	     39.23499240	     -0.07673486	      1.09063630	     31.16851045	     32.89721746	    -63.44370371	    -60.67275150	    -38.93121965	    -47.19194148	    -30.28601477
      6.57000000	     39.23224716	     -0.07674017	      1.09065321	     31.16858506	     32.89470493	    -63.44426811	    -60.67508939	    -38.93145821	    -47.19210031	    -30.28599895
      6.58000000	     39.23526586	     -0.07673836	      1.09060126	     31.17106266	     32.90020087	    -63.45305076	    -60.70095027	    -38.93718243	    -47.19373936	    -30.28249979
      6.59000000	     39.23401202	     -0.07672490	      1.09059758	     31.17027396	     32.89914806	    -63.46040669	    -60.69551257	    -38.93859342	    -47.19676557	    -30.27983423
